<svg width="200" height="200" viewBox="0 0 200 200" fill="none" xmlns="http://www.w3.org/2000/svg">
<path d="M41.6663 41.6673C28.6502 48.8643 18.4147 60.2072 12.5878 73.8915C6.761 87.5759 5.67754 102.816 9.50982 117.187C13.3421 131.558 21.87 144.235 33.737 153.201C45.6039 162.167 60.1283 166.907 74.9996 166.667H150C154.831 166.662 159.625 165.816 164.166 164.167M188.416 141.251C191.101 134.912 192.174 128.006 191.537 121.151C190.901 114.296 188.577 107.706 184.772 101.969C180.966 96.2319 175.799 91.5273 169.731 88.2754C163.663 85.0235 156.884 83.3258 150 83.334H139.5C136.098 69.938 128.617 57.9305 118.092 48.9728C107.566 40.0151 94.5171 34.5501 80.7496 33.334L188.416 141.251Z" stroke="#C4C4C4" stroke-width="2" stroke-linecap="round" stroke-linejoin="round"/>
<path d="M8.33301 8.33398L191.666 191.667" stroke="#C4C4C4" stroke-width="2" stroke-linecap="round" stroke-linejoin="round"/>
</svg>
