<svg width="24" height="24" viewBox="0 0 24 24" fill="none" xmlns="http://www.w3.org/2000/svg">
<path d="M12 22C17.5228 22 22 17.5228 22 12C22 6.47715 17.5228 2 12 2C6.47715 2 2 6.47715 2 12C2 17.5228 6.47715 22 12 22Z" stroke="black" stroke-width="2" stroke-linecap="round" stroke-linejoin="round"/>
<path d="M12 19C15.866 19 19 15.866 19 12C19 8.13401 15.866 5 12 5C8.13401 5 5 8.13401 5 12C5 15.866 8.13401 19 12 19Z" stroke="black" stroke-width="2" stroke-linecap="round" stroke-linejoin="round"/>
<path d="M13.9167 9.70898H11.4167C11.1072 9.70898 10.8105 9.8319 10.5917 10.0507C10.3729 10.2695 10.25 10.5662 10.25 10.8757C10.25 11.1851 10.3729 11.4818 10.5917 11.7006C10.8105 11.9194 11.1072 12.0423 11.4167 12.0423H13.0833C13.3928 12.0423 13.6895 12.1652 13.9083 12.384C14.1271 12.6028 14.25 12.8996 14.25 13.209C14.25 13.5184 14.1271 13.8152 13.9083 14.0339C13.6895 14.2527 13.3928 14.3757 13.0833 14.3757H10.25" stroke="black" stroke-width="2" stroke-linecap="round" stroke-linejoin="round"/>
</svg>
