<svg width="80" height="80" viewBox="0 0 80 80" fill="none" xmlns="http://www.w3.org/2000/svg">
<g filter="url(#filter0_i)">
<path d="M40.0003 73.3327C58.4098 73.3327 73.3337 58.4088 73.3337 39.9994C73.3337 21.5899 58.4098 6.66602 40.0003 6.66602C21.5908 6.66602 6.66699 21.5899 6.66699 39.9994C6.66699 58.4088 21.5908 73.3327 40.0003 73.3327Z" fill="url(#paint0_linear)"/>
</g>
<path d="M40.0003 73.3327C58.4098 73.3327 73.3337 58.4088 73.3337 39.9994C73.3337 21.5899 58.4098 6.66602 40.0003 6.66602C21.5908 6.66602 6.66699 21.5899 6.66699 39.9994C6.66699 58.4088 21.5908 73.3327 40.0003 73.3327Z" stroke="#F7931E" stroke-linecap="round" stroke-linejoin="round"/>
<g filter="url(#filter1_i)">
<path d="M40.0003 63.3327C52.887 63.3327 63.3337 52.886 63.3337 39.9994C63.3337 27.1127 52.887 16.666 40.0003 16.666C27.1137 16.666 16.667 27.1127 16.667 39.9994C16.667 52.886 27.1137 63.3327 40.0003 63.3327Z" fill="url(#paint1_linear)"/>
</g>
<path d="M40.0003 63.3327C52.887 63.3327 63.3337 52.886 63.3337 39.9994C63.3337 27.1127 52.887 16.666 40.0003 16.666C27.1137 16.666 16.667 27.1127 16.667 39.9994C16.667 52.886 27.1137 63.3327 40.0003 63.3327Z" stroke="#F2C94C" stroke-linecap="round" stroke-linejoin="round"/>
<g filter="url(#filter2_d)">
<path d="M40.196 52.36C38.252 52.36 36.368 52.084 34.544 51.532C32.744 50.98 31.316 50.248 30.26 49.336L31.88 45.7C32.912 46.516 34.172 47.188 35.66 47.716C37.172 48.22 38.684 48.472 40.196 48.472C42.068 48.472 43.46 48.172 44.372 47.572C45.308 46.972 45.776 46.18 45.776 45.196C45.776 44.476 45.512 43.888 44.984 43.432C44.48 42.952 43.832 42.58 43.04 42.316C42.248 42.052 41.168 41.752 39.8 41.416C37.88 40.96 36.32 40.504 35.12 40.048C33.944 39.592 32.924 38.884 32.06 37.924C31.22 36.94 30.8 35.62 30.8 33.964C30.8 32.572 31.172 31.312 31.916 30.184C32.684 29.032 33.824 28.12 35.336 27.448C36.872 26.776 38.744 26.44 40.952 26.44C42.488 26.44 44 26.632 45.488 27.016C46.976 27.4 48.26 27.952 49.34 28.672L47.864 32.308C46.76 31.66 45.608 31.168 44.408 30.832C43.208 30.496 42.044 30.328 40.916 30.328C39.068 30.328 37.688 30.64 36.776 31.264C35.888 31.888 35.444 32.716 35.444 33.748C35.444 34.468 35.696 35.056 36.2 35.512C36.728 35.968 37.388 36.328 38.18 36.592C38.972 36.856 40.052 37.156 41.42 37.492C43.292 37.924 44.828 38.38 46.028 38.86C47.228 39.316 48.248 40.024 49.088 40.984C49.952 41.944 50.384 43.24 50.384 44.872C50.384 46.264 50 47.524 49.232 48.652C48.488 49.78 47.348 50.68 45.812 51.352C44.276 52.024 42.404 52.36 40.196 52.36Z" fill="#FCFF7A"/>
<path d="M34.544 51.532L34.2508 52.4881L34.2543 52.4891L34.544 51.532ZM30.26 49.336L29.3466 48.929L29.0443 49.6074L29.6064 50.0928L30.26 49.336ZM31.88 45.7L32.5002 44.9156L31.4905 44.1172L30.9666 45.293L31.88 45.7ZM35.66 47.716L35.3256 48.6584L35.3347 48.6616L35.3438 48.6647L35.66 47.716ZM44.372 47.572L43.8323 46.7301L43.8224 46.7366L44.372 47.572ZM44.984 43.432L44.2943 44.1561L44.312 44.1729L44.3304 44.1888L44.984 43.432ZM43.04 42.316L43.3562 41.3673H43.3562L43.04 42.316ZM39.8 41.416L40.0385 40.4448L40.0311 40.4431L39.8 41.416ZM35.12 40.048L34.7585 40.9804L34.7648 40.9828L35.12 40.048ZM32.06 37.924L31.2994 38.5733L31.3079 38.5832L31.3167 38.593L32.06 37.924ZM31.916 30.184L31.0839 29.6293L31.0812 29.6334L31.916 30.184ZM35.336 27.448L34.9352 26.5318L34.9299 26.5342L35.336 27.448ZM45.488 27.016L45.2381 27.9843L45.488 27.016ZM49.34 28.672L50.2666 29.0481L50.5734 28.2924L49.8947 27.84L49.34 28.672ZM47.864 32.308L47.3578 33.1704L48.3555 33.756L48.7906 32.6841L47.864 32.308ZM44.408 30.832L44.1384 31.795H44.1384L44.408 30.832ZM36.776 31.264L36.2113 30.4386L36.2011 30.4458L36.776 31.264ZM36.2 35.512L35.5291 36.2535L35.5376 36.2613L35.5464 36.2688L36.2 35.512ZM38.18 36.592L38.4962 35.6433L38.4962 35.6433L38.18 36.592ZM41.42 37.492L41.1815 38.4632L41.1951 38.4664L41.42 37.492ZM46.028 38.86L45.6566 39.7885L45.6647 39.7917L45.6728 39.7948L46.028 38.86ZM49.088 40.984L48.3354 41.6426L48.3447 41.653L49.088 40.984ZM49.232 48.652L48.4054 48.0892L48.4013 48.0953L48.3972 48.1014L49.232 48.652ZM45.812 51.352L45.4112 50.4358H45.4112L45.812 51.352ZM40.196 51.36C38.3481 51.36 36.5618 51.0979 34.8337 50.5749L34.2543 52.4891C36.1742 53.0701 38.1559 53.36 40.196 53.36V51.36ZM34.8372 50.5759C33.1261 50.0512 31.8347 49.3747 30.9136 48.5792L29.6064 50.0928C30.7973 51.1213 32.3619 51.9088 34.2508 52.4881L34.8372 50.5759ZM31.1734 49.743L32.7934 46.107L30.9666 45.293L29.3466 48.929L31.1734 49.743ZM31.2598 46.4844C32.393 47.3804 33.7543 48.1009 35.3256 48.6584L35.9944 46.7736C34.5897 46.2751 33.431 45.6516 32.5002 44.9156L31.2598 46.4844ZM35.3438 48.6647C36.9522 49.2008 38.5708 49.472 40.196 49.472V47.472C38.7972 47.472 37.3918 47.2392 35.9762 46.7673L35.3438 48.6647ZM40.196 49.472C42.1396 49.472 43.767 49.167 44.9216 48.4074L43.8224 46.7366C43.153 47.177 41.9964 47.472 40.196 47.472V49.472ZM44.9117 48.4139C46.0906 47.6582 46.776 46.5698 46.776 45.196H44.776C44.776 45.7902 44.5254 46.2858 43.8323 46.7301L44.9117 48.4139ZM46.776 45.196C46.776 44.196 46.3935 43.328 45.6376 42.6752L44.3304 44.1888C44.6305 44.448 44.776 44.756 44.776 45.196H46.776ZM45.6737 42.7079C45.0441 42.1083 44.2603 41.6687 43.3562 41.3673L42.7238 43.2647C43.4037 43.4913 43.9159 43.7957 44.2943 44.1561L45.6737 42.7079ZM43.3562 41.3673C42.5272 41.091 41.4176 40.7836 40.0385 40.4449L39.5615 42.3871C40.9184 42.7204 41.9688 43.013 42.7238 43.2647L43.3562 41.3673ZM40.0311 40.4431C38.1334 39.9924 36.6193 39.548 35.4752 39.1132L34.7648 40.9828C36.0207 41.46 37.6266 41.9276 39.5689 42.3889L40.0311 40.4431ZM35.4815 39.1156C34.4553 38.7177 33.565 38.1014 32.8033 37.255L31.3167 38.593C32.283 39.6666 33.4327 40.4663 34.7585 40.9804L35.4815 39.1156ZM32.8206 37.2747C32.1743 36.5177 31.8 35.4502 31.8 33.964H29.8C29.8 35.7898 30.2657 37.3623 31.2994 38.5733L32.8206 37.2747ZM31.8 33.964C31.8 32.7615 32.1179 31.6941 32.7508 30.7346L31.0812 29.6334C30.2261 30.9299 29.8 32.3825 29.8 33.964H31.8ZM32.7481 30.7387C33.392 29.7728 34.3691 28.972 35.7421 28.3618L34.9299 26.5342C33.2789 27.268 31.976 28.2912 31.0839 29.6293L32.7481 30.7387ZM35.7368 28.3642C37.1132 27.762 38.8403 27.44 40.952 27.44V25.44C38.6477 25.44 36.6308 25.79 34.9352 26.5318L35.7368 28.3642ZM40.952 27.44C42.4037 27.44 43.8317 27.6213 45.2381 27.9843L45.7379 26.0477C44.1683 25.6427 42.5723 25.44 40.952 25.44V27.44ZM45.2381 27.9843C46.6371 28.3453 47.8139 28.8565 48.7853 29.504L49.8947 27.84C48.7061 27.0475 47.3149 26.4547 45.7379 26.0477L45.2381 27.9843ZM48.4134 28.2959L46.9374 31.9319L48.7906 32.6841L50.2666 29.0481L48.4134 28.2959ZM48.3702 31.4456C47.194 30.7552 45.9627 30.2289 44.6776 29.869L44.1384 31.795C45.2533 32.1071 46.326 32.5648 47.3578 33.1704L48.3702 31.4456ZM44.6776 29.869C43.3989 29.511 42.1441 29.328 40.916 29.328V31.328C41.9439 31.328 43.0171 31.481 44.1384 31.795L44.6776 29.869ZM40.916 29.328C38.9884 29.328 37.3678 29.6474 36.2113 30.4387L37.3407 32.0893C38.0082 31.6326 39.1476 31.328 40.916 31.328V29.328ZM36.2011 30.4458C35.0629 31.2456 34.444 32.3709 34.444 33.748H36.444C36.444 33.0611 36.7131 32.5304 37.3509 32.0822L36.2011 30.4458ZM34.444 33.748C34.444 34.7317 34.8019 35.5956 35.5291 36.2535L36.8709 34.7705C36.5901 34.5164 36.444 34.2043 36.444 33.748H34.444ZM35.5464 36.2688C36.1906 36.8252 36.9717 37.2433 37.8638 37.5407L38.4962 35.6433C37.8043 35.4127 37.2654 35.1108 36.8536 34.7552L35.5464 36.2688ZM37.8638 37.5407C38.6928 37.817 39.8024 38.1244 41.1815 38.4631L41.6585 36.5209C40.3016 36.1876 39.2512 35.895 38.4962 35.6433L37.8638 37.5407ZM41.1951 38.4664C43.0387 38.8918 44.5211 39.3343 45.6566 39.7885L46.3994 37.9315C45.1349 37.4257 43.5453 36.9562 41.6449 36.5176L41.1951 38.4664ZM45.6728 39.7948C46.7207 40.193 47.604 40.8066 48.3354 41.6425L49.8406 40.3255C48.892 39.2414 47.7353 38.439 46.3832 37.9252L45.6728 39.7948ZM48.3447 41.653C49.0033 42.3847 49.384 43.4196 49.384 44.872H51.384C51.384 43.0604 50.9007 41.5033 49.8313 40.315L48.3447 41.653ZM49.384 44.872C49.384 46.0675 49.058 47.1307 48.4054 48.0892L50.0586 49.2148C50.942 47.9173 51.384 46.4605 51.384 44.872H49.384ZM48.3972 48.1014C47.7826 49.0333 46.8129 49.8226 45.4112 50.4358L46.2128 52.2682C47.8831 51.5374 49.1934 50.5267 50.0668 49.2026L48.3972 48.1014ZM45.4112 50.4358C44.0348 51.038 42.3077 51.36 40.196 51.36V53.36C42.5003 53.36 44.5172 53.01 46.2128 52.2682L45.4112 50.4358Z" fill="#FFC103"/>
</g>
<defs>
<filter id="filter0_i" x="6.16699" y="6.16602" width="67.6667" height="71.6667" filterUnits="userSpaceOnUse" color-interpolation-filters="sRGB">
<feFlood flood-opacity="0" result="BackgroundImageFix"/>
<feBlend mode="normal" in="SourceGraphic" in2="BackgroundImageFix" result="shape"/>
<feColorMatrix in="SourceAlpha" type="matrix" values="0 0 0 0 0 0 0 0 0 0 0 0 0 0 0 0 0 0 127 0" result="hardAlpha"/>
<feOffset dy="4"/>
<feGaussianBlur stdDeviation="2"/>
<feComposite in2="hardAlpha" operator="arithmetic" k2="-1" k3="1"/>
<feColorMatrix type="matrix" values="0 0 0 0 0 0 0 0 0 0 0 0 0 0 0 0 0 0 0.25 0"/>
<feBlend mode="normal" in2="shape" result="effect1_innerShadow"/>
</filter>
<filter id="filter1_i" x="16.167" y="16.166" width="47.6667" height="51.6667" filterUnits="userSpaceOnUse" color-interpolation-filters="sRGB">
<feFlood flood-opacity="0" result="BackgroundImageFix"/>
<feBlend mode="normal" in="SourceGraphic" in2="BackgroundImageFix" result="shape"/>
<feColorMatrix in="SourceAlpha" type="matrix" values="0 0 0 0 0 0 0 0 0 0 0 0 0 0 0 0 0 0 127 0" result="hardAlpha"/>
<feOffset dy="4"/>
<feGaussianBlur stdDeviation="2"/>
<feComposite in2="hardAlpha" operator="arithmetic" k2="-1" k3="1"/>
<feColorMatrix type="matrix" values="0 0 0 0 0 0 0 0 0 0 0 0 0 0 0 0 0 0 0.25 0"/>
<feBlend mode="normal" in2="shape" result="effect1_innerShadow"/>
</filter>
<filter id="filter2_d" x="25.0439" y="25.4395" width="30.3397" height="35.92" filterUnits="userSpaceOnUse" color-interpolation-filters="sRGB">
<feFlood flood-opacity="0" result="BackgroundImageFix"/>
<feColorMatrix in="SourceAlpha" type="matrix" values="0 0 0 0 0 0 0 0 0 0 0 0 0 0 0 0 0 0 127 0"/>
<feOffset dy="4"/>
<feGaussianBlur stdDeviation="2"/>
<feColorMatrix type="matrix" values="0 0 0 0 0 0 0 0 0 0 0 0 0 0 0 0 0 0 0.25 0"/>
<feBlend mode="normal" in2="BackgroundImageFix" result="effect1_dropShadow"/>
<feBlend mode="normal" in="SourceGraphic" in2="effect1_dropShadow" result="shape"/>
</filter>
<linearGradient id="paint0_linear" x1="40.0003" y1="6.66602" x2="40.0003" y2="73.3327" gradientUnits="userSpaceOnUse">
<stop offset="0.395833" stop-color="#FFC103"/>
<stop offset="1" stop-color="#FFC103" stop-opacity="0"/>
</linearGradient>
<linearGradient id="paint1_linear" x1="40.0003" y1="16.666" x2="40.0003" y2="63.3327" gradientUnits="userSpaceOnUse">
<stop offset="0.651042" stop-color="#FFC103"/>
<stop offset="1" stop-color="#FFC103" stop-opacity="0"/>
</linearGradient>
</defs>
</svg>
