<svg width="37" height="37" viewBox="0 0 37 37" fill="none" xmlns="http://www.w3.org/2000/svg">
<path d="M17.0204 26.6409C11.6924 26.6409 7.40039 22.3489 7.40039 17.0209C7.40039 11.6929 11.6924 7.40088 17.0204 7.40088C22.3484 7.40088 26.6404 11.6929 26.6404 17.0209C26.6404 22.3489 22.3484 26.6409 17.0204 26.6409ZM17.0204 8.88088C12.5064 8.88088 8.88039 12.5069 8.88039 17.0209C8.88039 21.5349 12.5064 25.1609 17.0204 25.1609C21.5344 25.1609 25.1604 21.5349 25.1604 17.0209C25.1604 12.5069 21.5344 8.88088 17.0204 8.88088Z" fill="black" stroke="black"/>
<path d="M24.1841 23.1372L30.8293 29.7824L29.7829 30.8288L23.1377 24.1836L24.1841 23.1372Z" fill="black" stroke="black"/>
</svg>
