<svg width="50" height="50" viewBox="0 0 50 50" fill="none" xmlns="http://www.w3.org/2000/svg">
<path d="M41.6663 25V45.8333H8.33301V25" fill="#FFC103"/>
<path d="M45.8337 14.582H4.16699V24.9987H45.8337V14.582Z" fill="#1A8FDD"/>
<path d="M25 45.832V14.582" stroke="#F7931E" stroke-width="2" stroke-linecap="round" stroke-linejoin="round"/>
<path d="M25.0003 14.5846H15.6253C14.244 14.5846 12.9192 14.0359 11.9425 13.0591C10.9657 12.0824 10.417 10.7576 10.417 9.3763C10.417 7.99497 10.9657 6.67021 11.9425 5.69345C12.9192 4.7167 14.244 4.16797 15.6253 4.16797C22.917 4.16797 25.0003 14.5846 25.0003 14.5846Z" stroke="#F7931E" stroke-width="2" stroke-linecap="round" stroke-linejoin="round"/>
<path d="M25 14.5846H34.375C35.7563 14.5846 37.0811 14.0359 38.0579 13.0591C39.0346 12.0824 39.5833 10.7576 39.5833 9.3763C39.5833 7.99497 39.0346 6.67021 38.0579 5.69345C37.0811 4.7167 35.7563 4.16797 34.375 4.16797C27.0833 4.16797 25 14.5846 25 14.5846Z" stroke="#F7931E" stroke-width="2" stroke-linecap="round" stroke-linejoin="round"/>
</svg>
