<svg width="26" height="29" viewBox="0 0 26 29" fill="none" xmlns="http://www.w3.org/2000/svg">
<path d="M20.5 9.5C20.5 7.51088 19.7098 5.60322 18.3033 4.1967C16.8968 2.79018 14.9891 2 13 2C11.0109 2 9.10322 2.79018 7.6967 4.1967C6.29018 5.60322 5.5 7.51088 5.5 9.5C5.5 18.25 1.75 20.75 1.75 20.75H24.25C24.25 20.75 20.5 18.25 20.5 9.5Z" stroke="white" stroke-width="2.5" stroke-linecap="round" stroke-linejoin="round"/>
<path d="M15.1629 25.75C14.9431 26.1288 14.6277 26.4433 14.2482 26.6619C13.8687 26.8805 13.4384 26.9956 13.0004 26.9956C12.5624 26.9956 12.1321 26.8805 11.7526 26.6619C11.3731 26.4433 11.0577 26.1288 10.8379 25.75" stroke="white" stroke-width="2.5" stroke-linecap="round" stroke-linejoin="round"/>
</svg>
