<svg width="25" height="25" viewBox="0 0 25 25" fill="none" xmlns="http://www.w3.org/2000/svg">
<g clip-path="url(#clip0)">
<path d="M1.5 4.5V10.5H7.5" stroke="#828282" stroke-width="2" stroke-linecap="round" stroke-linejoin="round"/>
<path d="M4.01 15.4999C4.65839 17.3403 5.88734 18.9201 7.51166 20.0013C9.13598 21.0825 11.0677 21.6065 13.0157 21.4944C14.9637 21.3823 16.8226 20.6401 18.3121 19.3797C19.8017 18.1193 20.8413 16.4089 21.2742 14.5063C21.7072 12.6037 21.5101 10.6119 20.7126 8.83105C19.9152 7.05019 18.5605 5.57674 16.8528 4.63271C15.1451 3.68868 13.1769 3.32521 11.2447 3.59707C9.31245 3.86892 7.52091 4.76137 6.14 6.13995L1.5 10.4999" stroke="#828282" stroke-width="2" stroke-linecap="round" stroke-linejoin="round"/>
</g>
<defs>
<clipPath id="clip0">
<rect width="24" height="24" fill="white" transform="translate(0.5 0.5)"/>
</clipPath>
</defs>
</svg>
