<svg width="26" height="26" viewBox="0 0 26 26" fill="none" xmlns="http://www.w3.org/2000/svg">
<path d="M11.0204 20.6409C5.69239 20.6409 1.40039 16.3489 1.40039 11.0209C1.40039 5.69288 5.69239 1.40088 11.0204 1.40088C16.3484 1.40088 20.6404 5.69288 20.6404 11.0209C20.6404 16.3489 16.3484 20.6409 11.0204 20.6409ZM11.0204 2.88088C6.50639 2.88088 2.88039 6.50688 2.88039 11.0209C2.88039 15.5349 6.50639 19.1609 11.0204 19.1609C15.5344 19.1609 19.1604 15.5349 19.1604 11.0209C19.1604 6.50688 15.5344 2.88088 11.0204 2.88088Z" fill="white" stroke="white"/>
<path d="M18.1841 17.1372L24.8293 23.7824L23.7829 24.8288L17.1377 18.1836L18.1841 17.1372Z" fill="white" stroke="white"/>
</svg>
