<svg width="20" height="20" viewBox="0 0 20 20" fill="none" xmlns="http://www.w3.org/2000/svg">
<path d="M10.0003 18.3346C14.6027 18.3346 18.3337 14.6037 18.3337 10.0013C18.3337 5.39893 14.6027 1.66797 10.0003 1.66797C5.39795 1.66797 1.66699 5.39893 1.66699 10.0013C1.66699 14.6037 5.39795 18.3346 10.0003 18.3346Z" fill="#F7931E" fill-opacity="0.8" stroke="#EB5757" stroke-width="2" stroke-linecap="round" stroke-linejoin="round"/>
<path d="M10 15C12.7614 15 15 12.7614 15 10C15 7.23858 12.7614 5 10 5C7.23858 5 5 7.23858 5 10C5 12.7614 7.23858 15 10 15Z" fill="#F7931E" stroke="#EB5757" stroke-width="2" stroke-linecap="round" stroke-linejoin="round"/>
<path d="M9.99967 11.6654C10.9201 11.6654 11.6663 10.9192 11.6663 9.9987C11.6663 9.07822 10.9201 8.33203 9.99967 8.33203C9.0792 8.33203 8.33301 9.07822 8.33301 9.9987C8.33301 10.9192 9.0792 11.6654 9.99967 11.6654Z" fill="#F7931E" stroke="#EB5757" stroke-width="2" stroke-linecap="round" stroke-linejoin="round"/>
</svg>
